<?xml version="1.0" encoding="UTF-8"?>
<svg xmlns="http://www.w3.org/2000/svg" id="Layer_1" data-name="Layer 1" viewBox="0 0 24 24">
  <path d="M21.547,11.355c-.319-1.564-.646-2.999-.943-4.231l-7.107,1.455c-.009-.31-.018-.61-.029-.899h-5.289v8.641h5.289c.045-1.264,.078-2.728,.078-4.307,0-.887-.01-1.734-.027-2.53,.181,1.036,.393,2.176,.639,3.383,.317,1.553,.641,2.979,.937,4.205l7.237-1.481c-.209-1.247-.469-2.688-.785-4.235Z"/>
  <path d="M13.072,6.74l7.075-1.448c-.406-1.573-.686-2.522-.691-2.541-.087-.293-.309-.525-.598-.624-.061-.021-1.526-.515-3.083-.197-1.196,.245-2.158,.914-2.558,1.227-.028-.301-.199-.57-.46-.724-.056-.033-1.394-.811-2.981-.811-.582,0-1.131,.105-1.596,.24v3.931h4.753c.041,.285,.087,.602,.139,.947Z"/>
  <path d="M22.994,20.09c-.002-.019-.119-1.017-.364-2.635l-7.078,1.449c.409,1.589,.693,2.548,.698,2.567,.088,.298,.317,.533,.613,.629,.046,.015,1.34,.487,3.062,.166h0c1.542-.316,2.702-1.313,2.751-1.355,.234-.205,.353-.511,.317-.82Z"/>
  <path d="M1,12.013c0,1.585,.032,3.047,.077,4.307H6.292V7.68H1.078c-.045,1.27-.078,2.743-.078,4.334Z"/>
  <path d="M8.179,22.147c.464,.13,1.013,.231,1.596,.231,1.574,0,2.91-.744,2.966-.776,.271-.153,.449-.43,.475-.74,.002-.019,.087-1.021,.17-2.654h-5.208v3.94Z"/>
  <path d="M1.329,20.863c.027,.31,.205,.586,.475,.739,.056,.032,1.389,.777,2.967,.777,.551,0,1.073-.091,1.522-.211v-3.96H1.158c.083,1.639,.169,2.636,.171,2.655Z"/>
  <path d="M1.791,2.432c-.263,.155-.435,.428-.462,.732-.002,.019-.086,1.01-.169,2.628H6.292V1.84c-.448-.124-.97-.218-1.522-.218-1.583,0-2.924,.778-2.98,.81Z"/>
</svg>
